<svg xmlns="http://www.w3.org/2000/svg" viewBox="0 0 6.239 9.614"><title>chevron-left</title><path d="M1.687,3.12a0.634,0.634,0,0,1,.22-0.464l4.74-4.147A0.752,0.752,0,0,1,6.89-1.636a0.832,0.832,0,0,1,.288-0.051,0.832,0.832,0,0,1,.288.051,0.752,0.752,0,0,1,.242.145,0.618,0.618,0,0,1,.219.464,0.618,0.618,0,0,1-.219.464L3.5,3.12,7.707,6.8a0.6,0.6,0,0,1,0,.928,0.752,0.752,0,0,1-.242.145,0.838,0.838,0,0,1-.575,0,0.752,0.752,0,0,1-.242-0.145L1.907,3.583A0.618,0.618,0,0,1,1.687,3.12Z" transform="translate(-1.687 1.687)" style="fill:#fff"/></svg>