<svg xmlns="http://www.w3.org/2000/svg" viewBox="0 0 6.239 9.614"><title>chevron-right</title><path d="M7.927,3.12a0.634,0.634,0,0,1-.22.464L2.967,7.731a0.752,0.752,0,0,1-.242.145,0.838,0.838,0,0,1-.575,0,0.752,0.752,0,0,1-.242-0.145,0.6,0.6,0,0,1,0-.927L6.117,3.12,1.907-.564a0.618,0.618,0,0,1-.219-0.464,0.618,0.618,0,0,1,.219-0.464,0.752,0.752,0,0,1,.242-0.145,0.832,0.832,0,0,1,.288-0.051,0.832,0.832,0,0,1,.288.051,0.752,0.752,0,0,1,.242.145l4.74,4.148A0.618,0.618,0,0,1,7.927,3.12Z" transform="translate(-1.687 1.687)" style="fill:#fff"/></svg>