<svg width="19" height="14" viewBox="0 0 19 14" fill="none" xmlns="http://www.w3.org/2000/svg">
<path d="M18.9988 4.51485V12.4093C18.9988 12.8469 18.8328 13.2214 18.5007 13.5329C18.1687 13.8443 17.7693 14 17.3027 14H1.69732C1.23069 14 0.831344 13.8443 0.499281 13.5329C0.167219 13.2214 0.00118735 12.8469 0.00118735 12.4093V4.51485C0.312273 4.83964 0.669271 5.12804 1.07218 5.38008C3.63053 7.01067 5.38682 8.15409 6.34105 8.81034C6.74396 9.08873 7.07088 9.30587 7.3218 9.46176C7.57273 9.61766 7.90677 9.77671 8.32393 9.93891C8.74109 10.1011 9.12974 10.1824 9.48991 10.1828H9.51128C9.87184 10.1828 10.2605 10.1015 10.6773 9.93891C11.094 9.77634 11.4281 9.61729 11.6794 9.46176C11.9307 9.30624 12.2576 9.0891 12.6601 8.81034C13.8617 7.99523 15.6216 6.85181 17.9397 5.38008C18.3426 5.12173 18.696 4.83333 19 4.51485H18.9988ZM18.9988 1.59181C18.9988 2.11554 18.8257 2.61589 18.4793 3.09286C18.133 3.56983 17.7018 3.97738 17.1857 4.31553C14.5284 6.0456 12.8747 7.12277 12.2244 7.54703C12.1535 7.59343 12.0033 7.69457 11.7738 7.85047C11.5442 8.00636 11.3535 8.13238 11.2015 8.22852C11.0495 8.32465 10.8657 8.43229 10.65 8.55144C10.4342 8.67059 10.231 8.76005 10.0402 8.81981C9.84948 8.87957 9.67276 8.90945 9.51009 8.90945H9.48872C9.32605 8.90945 9.14934 8.87957 8.95857 8.81981C8.7678 8.76005 8.56457 8.67059 8.34886 8.55144C8.13316 8.43229 7.94932 8.32465 7.79734 8.22852C7.64536 8.13238 7.45459 8.00636 7.22504 7.85047C6.99548 7.69457 6.84528 7.59343 6.77444 7.54703C6.13129 7.12277 5.20535 6.51793 3.99663 5.73251C2.7879 4.94709 2.06342 4.47477 1.82318 4.31553C1.38505 4.03714 0.971649 3.65427 0.58299 3.16691C0.19433 2.67955 0 2.22708 0 1.8095C0 1.29245 0.146638 0.861695 0.439914 0.51724C0.73319 0.172784 1.15193 0.00037118 1.69613 0H17.3015C17.761 0 18.1586 0.15571 18.4942 0.467131C18.8298 0.778551 18.9976 1.15307 18.9976 1.59069L18.9988 1.59181Z" fill="#B4B4B4"/>
</svg>
