<svg width="24" height="24" viewBox="0 0 24 24" fill="none" xmlns="http://www.w3.org/2000/svg">
<path d="M12.0001 1.88887C17.6437 2.07967 21.9205 6.35647 22.1113 12.0001C22.3021 17.6401 17.3557 21.9301 12.0001 22.1113C6.36013 22.3021 2.07013 17.3557 1.88893 12.0001C1.69813 6.36007 6.64393 2.07007 12.0001 1.88887ZM12.0001 23.9953C18.6709 23.8021 23.8021 18.6709 23.9953 12.0001C24.1885 5.33167 18.3793 0.18967 12.0001 0.00486991C5.33173 -0.18833 0.189731 5.62087 0.00493095 12.0001C-0.188269 18.6685 5.62093 23.8105 12.0001 23.9953V23.9953Z" fill="#518BFF"/>
<path d="M9.47341 7.57559L15.63 11.418L16.5702 12.0048C16.5282 12.0252 16.4808 12.0504 16.422 12.087L12.6882 14.418L9.47221 16.4244V14.8308V7.57559H9.47341ZM7.87201 19.644L19.86 12.1632C19.8879 12.1461 19.911 12.1221 19.927 12.0935C19.943 12.0649 19.9514 12.0327 19.9514 12C19.9514 11.9672 19.943 11.935 19.927 11.9065C19.911 11.8779 19.8879 11.8539 19.86 11.8368L7.87201 4.35599C7.84043 4.33406 7.8022 4.32381 7.76389 4.32698C7.72557 4.33016 7.68955 4.34656 7.66201 4.37339C7.63853 4.38947 7.61946 4.41119 7.60656 4.43657C7.59367 4.46194 7.58736 4.49014 7.58821 4.51859V19.482C7.58821 19.6218 7.74961 19.7208 7.87201 19.6446V19.644Z" fill="#518BFF"/>
</svg>
