<svg width="12" height="18" viewBox="0 0 12 18" fill="none" xmlns="http://www.w3.org/2000/svg">
<path d="M6.37702 0C6.78511 0.0692011 7.20218 0.110405 7.60129 0.211301C9.07367 0.588473 10.2278 1.39247 11.0512 2.59847C12.0656 4.08286 12.2138 5.684 11.7456 7.36912C11.3285 8.87094 10.6875 10.2882 9.97124 11.6797C8.87664 13.8048 7.61364 15.8386 6.25634 17.8243C6.09972 18.0541 5.95153 18.0588 5.78425 17.8364C3.97957 15.4445 2.36742 12.948 1.16729 10.2296C0.626722 9.00618 0.206844 7.74682 0.0446189 6.42144C-0.277587 3.81557 1.16729 1.45586 3.66578 0.442147C4.24307 0.208344 4.85812 0.0677969 5.48506 0.0264126C5.53368 0.0204166 5.58186 0.0115955 5.62933 0L6.37702 0ZM6.00879 8.38865C6.55784 8.38813 7.09441 8.23445 7.55068 7.94703C8.00695 7.65961 8.36243 7.25135 8.57222 6.77385C8.782 6.29636 8.83665 5.77105 8.72928 5.26433C8.62191 4.75761 8.35732 4.29222 7.96896 3.92697C7.58061 3.56172 7.08591 3.31301 6.54739 3.21227C6.00887 3.11153 5.4507 3.16329 4.94343 3.36099C4.43616 3.5587 4.00255 3.89349 3.69741 4.32304C3.39227 4.75259 3.22929 5.25763 3.22906 5.77433C3.23019 7.21857 4.48308 8.39922 6.00879 8.38865Z" fill="#B4B4B4"/>
</svg>
