<svg width="21" height="20" viewBox="0 0 21 20" fill="none" xmlns="http://www.w3.org/2000/svg">
<path d="M10.1954 17.3137C10.5078 16.3652 10.8329 15.4209 11.129 14.4673C11.3302 13.8196 11.5035 13.1626 11.6639 12.5033C11.7342 12.2142 11.8669 12.1316 12.1385 12.2265C13.2807 12.6265 14.4267 13.0154 15.5653 13.4252C16.0016 13.582 16.4405 13.7501 16.8444 13.9739C17.5262 14.3519 17.8859 14.9395 17.8587 15.7493C17.8379 16.3862 17.8587 17.0245 17.8531 17.6618C17.8405 18.8571 17.2982 19.3987 16.1198 19.3987H1.64534C0.58751 19.3987 0.0370211 18.8582 0.0169358 17.7843C0.00540525 17.1471 0.0507834 16.5087 0.00652111 15.8737C-0.0678692 14.7792 0.499729 14.1394 1.42626 13.7569C2.35279 13.3744 3.29048 13.0296 4.2304 12.6878C4.70576 12.5148 5.20083 12.3972 5.68102 12.2313C6.00685 12.1193 6.11546 12.241 6.20621 12.5496C6.63656 14.0135 7.0922 15.4699 7.54003 16.9289C7.57723 17.0484 7.62372 17.165 7.68881 17.348C7.74944 17.224 7.8004 17.1613 7.81007 17.0933C7.92686 16.2091 8.05704 15.3264 8.13664 14.4389C8.15747 14.2062 8.04254 13.9474 7.94434 13.7206C7.66091 13.0647 7.84243 12.761 8.55657 12.7494C8.86678 12.7438 9.17736 12.742 9.48645 12.7554C9.91197 12.7745 10.2025 13.1091 9.99789 13.4547C9.58539 14.1524 9.7643 14.8479 9.84687 15.5539C9.91531 16.1381 10.0057 16.7201 10.086 17.3028L10.1954 17.3137Z" fill="white"/>
<path d="M11.0433 0.422156C12.5099 0.945104 13.1262 2.09596 12.8577 3.63829C12.7877 4.04208 12.6977 4.444 12.6598 4.85116C12.6486 4.97143 12.7576 5.18472 12.8577 5.21909C13.1924 5.33302 13.2951 5.57619 13.2798 5.87501C13.2408 6.65197 13.2382 7.44386 12.4917 7.96681C12.3403 8.07327 12.2577 8.31345 12.1967 8.50918C11.7738 9.86959 10.8993 10.7747 9.53577 11.1766C8.6628 11.434 7.89398 11.115 7.18132 10.6469C6.39316 10.1288 5.93566 9.36308 5.62954 8.48042C5.535 8.22412 5.38082 7.99423 5.17985 7.80992C4.74876 7.41398 4.38871 6.02854 4.64498 5.51343C4.70115 5.40137 4.83914 5.26802 4.9511 5.25644C5.34351 5.21573 5.28586 4.97031 5.26317 4.70473C5.20477 4.03237 5.13708 3.35515 5.11959 2.67905C5.10546 2.11165 5.27916 1.62307 5.86945 1.37579C6.02976 1.30855 6.19863 1.17445 6.28231 1.02504C6.65761 0.359402 7.25943 0.125943 7.97023 0.0732744C8.26482 0.0504888 8.55977 0.0262091 8.85436 0.00267638C9.85305 -0.0257123 10.3492 0.175623 11.0433 0.422156Z" fill="white"/>
<path d="M13.9886 2.17188H15.1156C16.6822 2.17188 18.2489 2.17262 19.8156 2.17412C20.6037 2.17412 20.9894 2.55251 20.9913 3.33917C20.9955 5.04025 20.9955 6.74108 20.9913 8.44165C20.9913 9.15436 20.5754 9.5645 19.8587 9.57869C19.8306 9.58169 19.8023 9.58169 19.7743 9.57869C18.6811 9.3796 17.8528 9.77667 17.1806 10.6504C16.8295 11.1065 16.3761 11.4841 15.9595 11.8871C15.8881 11.9562 15.7687 11.9753 15.6716 12.0175C15.6344 11.9178 15.5679 11.8188 15.566 11.7187C15.5548 11.152 15.5496 10.585 15.5627 10.0183C15.5701 9.68777 15.4362 9.56823 15.1089 9.57608C14.4089 9.59251 13.7081 9.58093 12.998 9.58093C13.1346 8.91193 13.152 8.89475 13.7222 8.894C14.3996 8.894 15.0776 8.91268 15.7542 8.88915C16.1016 8.87682 16.2006 9.00756 16.1812 9.3344C16.1589 9.72101 16.176 10.1099 16.176 10.4976L16.3222 10.5525C16.4739 10.4229 16.6599 10.3175 16.7719 10.1595C17.5191 9.1043 18.5081 8.68557 19.7903 8.88392C20.2429 8.95377 20.372 8.78904 20.3742 8.32362C20.3809 6.69351 20.3809 5.06353 20.3742 3.43367C20.3742 2.95704 20.2675 2.86067 19.7996 2.85993C18.0355 2.85719 16.2713 2.85631 14.5071 2.85731C13.9257 2.85768 13.913 2.84162 13.9886 2.17188Z" fill="white"/>
<path d="M15.9909 5.74479C15.9887 6.24421 15.5293 6.69544 15.0324 6.68647C14.5797 6.67826 14.1304 6.22889 14.1289 5.78215C14.1267 5.28945 14.5864 4.81768 15.0703 4.81544C15.5483 4.8132 15.9946 5.26517 15.9909 5.74479Z" fill="white"/>
<path d="M17.4231 5.74939C17.4231 5.22981 17.8122 4.82228 18.3135 4.81742C18.8149 4.81257 19.2285 5.244 19.2285 5.77591C19.2285 6.25105 18.8216 6.67725 18.3604 6.68771C17.8467 6.69892 17.4238 6.27496 17.4231 5.74939Z" fill="white"/>
</svg>
